<svg width="254" height="48" viewBox="0 0 254 48" fill="none" xmlns="http://www.w3.org/2000/svg">
<path fill-rule="evenodd" clip-rule="evenodd" d="M12.5581 12.7619L1.6192 23.8373L3.75158 23.8386L5.88397 23.84L14.7103 14.8979L23.5366 5.95571V3.81779C23.5366 2.64203 23.5277 1.68143 23.5168 1.68323C23.5059 1.68491 18.5745 6.67031 12.5581 12.7619ZM23.9314 3.82919V5.96027L32.759 14.9015L41.5868 23.8427L43.6783 23.8213L45.7698 23.7999L34.8507 12.749L23.9314 1.69811V3.82919ZM16.6969 16.8813L9.66003 24.0009L16.6683 31.1206C20.5229 35.0363 23.6909 38.24 23.7083 38.24C23.7258 38.24 25.6935 36.2591 28.081 33.8378C30.4685 31.4166 33.6216 28.2222 35.088 26.739C36.5543 25.2558 37.7449 24.0147 37.7338 23.9811C37.7201 23.9394 23.7487 9.74711 23.7349 9.76091C23.7349 9.76091 20.5673 12.9656 16.6969 16.8813ZM26.3826 16.7743C27.8363 18.2562 30.0325 20.4919 31.2631 21.7425L33.5004 24.0164L33.3405 24.1889C33.2525 24.2838 32.4945 25.043 31.6559 25.8761C30.8175 26.709 28.6976 28.8451 26.945 30.6228L23.7585 33.8551L22.371 32.4675C21.6081 31.7043 19.4001 29.4859 17.4645 27.5377L13.9453 23.9954L18.8394 19.0377C21.5312 16.311 23.7365 14.08 23.7365 14.08C23.7365 14.08 24.9289 15.2924 26.3826 16.7743ZM23.1975 22.3626C21.3955 23.0325 21.8043 25.76 23.7067 25.76C25.6739 25.76 26.1212 22.931 24.2432 22.3662C23.744 22.216 23.5933 22.2155 23.1975 22.3626ZM1.65865 24.2011C1.65865 24.2375 8.21514 30.8563 19.7455 42.4599L23.497 46.2354L23.5193 44.0977L23.5415 41.96L19.2937 37.6833C16.9576 35.3311 12.9795 31.3261 10.4538 28.7833L5.86157 24.1599H3.76011C2.6043 24.1599 1.65865 24.1785 1.65865 24.2011ZM41.5698 24.3409C41.2294 24.5953 36.6664 29.1513 29.7958 36.0966L23.9314 42.0248V44.1503V46.2757L25.9218 44.2778C32.3898 37.7855 45.7303 24.2807 45.7303 24.2254C45.7303 24.0454 41.8199 24.1539 41.5698 24.3409Z" fill="#2D55FF"/>
<path d="M62.047 24.8856C61.1004 24.8856 60.2204 24.7122 59.407 24.3656C58.607 24.0189 57.9137 23.5389 57.327 22.9256C56.7537 22.2989 56.3337 21.5722 56.067 20.7456L58.327 19.7656C58.687 20.6189 59.207 21.2922 59.887 21.7856C60.567 22.2656 61.3337 22.5056 62.187 22.5056C62.667 22.5056 63.0804 22.4322 63.427 22.2856C63.787 22.1256 64.0604 21.9122 64.247 21.6456C64.447 21.3789 64.547 21.0589 64.547 20.6856C64.547 20.2456 64.4137 19.8856 64.147 19.6056C63.8937 19.3122 63.507 19.0856 62.987 18.9256L60.127 18.0056C58.967 17.6456 58.0937 17.1056 57.507 16.3856C56.9204 15.6656 56.627 14.8189 56.627 13.8456C56.627 12.9922 56.8337 12.2389 57.247 11.5856C57.6737 10.9322 58.2604 10.4256 59.007 10.0656C59.767 9.69223 60.6337 9.50557 61.607 9.50557C62.5004 9.50557 63.3204 9.66557 64.067 9.98557C64.8137 10.2922 65.4537 10.7256 65.987 11.2856C66.5337 11.8322 66.9404 12.4789 67.207 13.2256L64.967 14.2256C64.6737 13.4789 64.2337 12.9056 63.647 12.5056C63.0604 12.0922 62.3804 11.8856 61.607 11.8856C61.1537 11.8856 60.7537 11.9656 60.407 12.1256C60.0604 12.2722 59.787 12.4856 59.587 12.7656C59.4004 13.0322 59.307 13.3522 59.307 13.7256C59.307 14.1389 59.4404 14.5056 59.707 14.8256C59.9737 15.1322 60.3804 15.3722 60.927 15.5456L63.667 16.4056C64.8537 16.7922 65.7404 17.3256 66.327 18.0056C66.927 18.6856 67.227 19.5256 67.227 20.5256C67.227 21.3789 67.007 22.1322 66.567 22.7856C66.127 23.4389 65.5204 23.9522 64.747 24.3256C63.9737 24.6989 63.0737 24.8856 62.047 24.8856ZM74.6963 24.8856C73.6163 24.8856 72.6429 24.6389 71.7763 24.1456C70.9229 23.6389 70.2496 22.9589 69.7563 22.1056C69.2629 21.2389 69.0163 20.2656 69.0163 19.1856C69.0163 18.1056 69.2629 17.1389 69.7563 16.2856C70.2496 15.4322 70.9229 14.7589 71.7763 14.2656C72.6429 13.7722 73.6163 13.5256 74.6963 13.5256C75.4696 13.5256 76.1896 13.6656 76.8563 13.9456C77.5229 14.2122 78.0963 14.5856 78.5763 15.0656C79.0696 15.5322 79.4229 16.0922 79.6363 16.7456L77.3363 17.7456C77.1363 17.1989 76.7963 16.7589 76.3163 16.4256C75.8496 16.0922 75.3096 15.9256 74.6963 15.9256C74.1229 15.9256 73.6096 16.0656 73.1563 16.3456C72.7163 16.6256 72.3696 17.0122 72.1163 17.5056C71.8629 17.9989 71.7363 18.5656 71.7363 19.2056C71.7363 19.8456 71.8629 20.4122 72.1163 20.9056C72.3696 21.3989 72.7163 21.7856 73.1563 22.0656C73.6096 22.3456 74.1229 22.4856 74.6963 22.4856C75.3229 22.4856 75.8696 22.3189 76.3363 21.9856C76.8029 21.6522 77.1363 21.2056 77.3363 20.6456L79.6363 21.6856C79.4229 22.2989 79.0763 22.8522 78.5963 23.3456C78.1163 23.8256 77.5429 24.2056 76.8763 24.4856C76.2096 24.7522 75.4829 24.8856 74.6963 24.8856ZM86.9442 24.8856C85.8776 24.8856 84.9042 24.6389 84.0242 24.1456C83.1576 23.6522 82.4642 22.9789 81.9442 22.1256C81.4376 21.2722 81.1842 20.2989 81.1842 19.2056C81.1842 18.1122 81.4376 17.1389 81.9442 16.2856C82.4642 15.4322 83.1576 14.7589 84.0242 14.2656C84.8909 13.7722 85.8642 13.5256 86.9442 13.5256C88.0109 13.5256 88.9776 13.7722 89.8442 14.2656C90.7109 14.7589 91.3976 15.4322 91.9042 16.2856C92.4242 17.1256 92.6842 18.0989 92.6842 19.2056C92.6842 20.2989 92.4242 21.2722 91.9042 22.1256C91.3842 22.9789 90.6909 23.6522 89.8242 24.1456C88.9576 24.6389 87.9976 24.8856 86.9442 24.8856ZM86.9442 22.4856C87.5309 22.4856 88.0442 22.3456 88.4842 22.0656C88.9376 21.7856 89.2909 21.3989 89.5442 20.9056C89.8109 20.3989 89.9442 19.8322 89.9442 19.2056C89.9442 18.5656 89.8109 18.0056 89.5442 17.5256C89.2909 17.0322 88.9376 16.6456 88.4842 16.3656C88.0442 16.0722 87.5309 15.9256 86.9442 15.9256C86.3442 15.9256 85.8176 16.0722 85.3642 16.3656C84.9109 16.6456 84.5509 17.0322 84.2842 17.5256C84.0309 18.0056 83.9042 18.5656 83.9042 19.2056C83.9042 19.8322 84.0309 20.3989 84.2842 20.9056C84.5509 21.3989 84.9109 21.7856 85.3642 22.0656C85.8176 22.3456 86.3442 22.4856 86.9442 22.4856ZM94.6711 24.6456V13.7656H97.1311V16.1856L96.9311 15.8256C97.1844 15.0122 97.5778 14.4456 98.1111 14.1256C98.6578 13.8056 99.3111 13.6456 100.071 13.6456H100.711V15.9656H99.7711C99.0244 15.9656 98.4244 16.1989 97.9711 16.6656C97.5178 17.1189 97.2911 17.7589 97.2911 18.5856V24.6456H94.6711ZM107.312 24.8856C106.192 24.8856 105.212 24.6322 104.372 24.1256C103.532 23.6189 102.878 22.9322 102.412 22.0656C101.945 21.1989 101.712 20.2389 101.712 19.1856C101.712 18.0922 101.945 17.1256 102.412 16.2856C102.892 15.4322 103.538 14.7589 104.352 14.2656C105.178 13.7722 106.098 13.5256 107.112 13.5256C107.965 13.5256 108.712 13.6656 109.352 13.9456C110.005 14.2256 110.558 14.6122 111.012 15.1056C111.465 15.5989 111.812 16.1656 112.052 16.8056C112.292 17.4322 112.412 18.1122 112.412 18.8456C112.412 19.0322 112.398 19.2256 112.372 19.4256C112.358 19.6256 112.325 19.7989 112.272 19.9456H103.872V17.9456H110.792L109.552 18.8856C109.672 18.2722 109.638 17.7256 109.452 17.2456C109.278 16.7656 108.985 16.3856 108.572 16.1056C108.172 15.8256 107.685 15.6856 107.112 15.6856C106.565 15.6856 106.078 15.8256 105.652 16.1056C105.225 16.3722 104.898 16.7722 104.672 17.3056C104.458 17.8256 104.378 18.4589 104.432 19.2056C104.378 19.8722 104.465 20.4656 104.692 20.9856C104.932 21.4922 105.278 21.8856 105.732 22.1656C106.198 22.4456 106.732 22.5856 107.332 22.5856C107.932 22.5856 108.438 22.4589 108.852 22.2056C109.278 21.9522 109.612 21.6122 109.852 21.1856L111.972 22.2256C111.758 22.7456 111.425 23.2056 110.972 23.6056C110.518 24.0056 109.978 24.3189 109.352 24.5456C108.738 24.7722 108.058 24.8856 107.312 24.8856ZM119.938 24.8856C118.991 24.8856 118.111 24.7122 117.298 24.3656C116.498 24.0189 115.804 23.5389 115.218 22.9256C114.644 22.2989 114.224 21.5722 113.958 20.7456L116.218 19.7656C116.578 20.6189 117.098 21.2922 117.778 21.7856C118.458 22.2656 119.224 22.5056 120.078 22.5056C120.558 22.5056 120.971 22.4322 121.318 22.2856C121.678 22.1256 121.951 21.9122 122.138 21.6456C122.338 21.3789 122.438 21.0589 122.438 20.6856C122.438 20.2456 122.304 19.8856 122.038 19.6056C121.784 19.3122 121.398 19.0856 120.878 18.9256L118.018 18.0056C116.858 17.6456 115.984 17.1056 115.398 16.3856C114.811 15.6656 114.518 14.8189 114.518 13.8456C114.518 12.9922 114.724 12.2389 115.138 11.5856C115.564 10.9322 116.151 10.4256 116.898 10.0656C117.658 9.69223 118.524 9.50557 119.498 9.50557C120.391 9.50557 121.211 9.66557 121.958 9.98557C122.704 10.2922 123.344 10.7256 123.878 11.2856C124.424 11.8322 124.831 12.4789 125.098 13.2256L122.858 14.2256C122.564 13.4789 122.124 12.9056 121.538 12.5056C120.951 12.0922 120.271 11.8856 119.498 11.8856C119.044 11.8856 118.644 11.9656 118.298 12.1256C117.951 12.2722 117.678 12.4856 117.478 12.7656C117.291 13.0322 117.198 13.3522 117.198 13.7256C117.198 14.1389 117.331 14.5056 117.598 14.8256C117.864 15.1322 118.271 15.3722 118.818 15.5456L121.558 16.4056C122.744 16.7922 123.631 17.3256 124.218 18.0056C124.818 18.6856 125.118 19.5256 125.118 20.5256C125.118 21.3789 124.898 22.1322 124.458 22.7856C124.018 23.4389 123.411 23.9522 122.638 24.3256C121.864 24.6989 120.964 24.8856 119.938 24.8856ZM128.667 29.0456C128.374 29.0456 128.087 29.0189 127.807 28.9656C127.527 28.9256 127.274 28.8456 127.047 28.7256V26.5456C127.22 26.5856 127.427 26.6256 127.667 26.6656C127.92 26.7056 128.154 26.7256 128.367 26.7256C128.967 26.7256 129.4 26.5856 129.667 26.3056C129.947 26.0389 130.194 25.6789 130.407 25.2256L131.127 23.5456L131.087 25.7456L126.347 13.7656H129.167L132.487 22.6056H131.487L134.787 13.7656H137.627L132.887 25.7456C132.607 26.4389 132.267 27.0322 131.867 27.5256C131.467 28.0189 131 28.3922 130.467 28.6456C129.947 28.9122 129.347 29.0456 128.667 29.0456ZM139.066 24.6456V13.7656H141.526V15.9056L141.326 15.5256C141.579 14.8722 141.992 14.3789 142.566 14.0456C143.152 13.6989 143.832 13.5256 144.606 13.5256C145.406 13.5256 146.112 13.6989 146.726 14.0456C147.352 14.3922 147.839 14.8789 148.186 15.5056C148.532 16.1189 148.706 16.8322 148.706 17.6456V24.6456H146.086V18.2656C146.086 17.7856 145.992 17.3722 145.806 17.0256C145.619 16.6789 145.359 16.4122 145.026 16.2256C144.706 16.0256 144.326 15.9256 143.886 15.9256C143.459 15.9256 143.079 16.0256 142.746 16.2256C142.412 16.4122 142.152 16.6789 141.966 17.0256C141.779 17.3722 141.686 17.7856 141.686 18.2656V24.6456H139.066ZM156.161 24.8856C155.081 24.8856 154.108 24.6389 153.241 24.1456C152.388 23.6389 151.714 22.9589 151.221 22.1056C150.728 21.2389 150.481 20.2656 150.481 19.1856C150.481 18.1056 150.728 17.1389 151.221 16.2856C151.714 15.4322 152.388 14.7589 153.241 14.2656C154.108 13.7722 155.081 13.5256 156.161 13.5256C156.934 13.5256 157.654 13.6656 158.321 13.9456C158.988 14.2122 159.561 14.5856 160.041 15.0656C160.534 15.5322 160.888 16.0922 161.101 16.7456L158.801 17.7456C158.601 17.1989 158.261 16.7589 157.781 16.4256C157.314 16.0922 156.774 15.9256 156.161 15.9256C155.588 15.9256 155.074 16.0656 154.621 16.3456C154.181 16.6256 153.834 17.0122 153.581 17.5056C153.328 17.9989 153.201 18.5656 153.201 19.2056C153.201 19.8456 153.328 20.4122 153.581 20.9056C153.834 21.3989 154.181 21.7856 154.621 22.0656C155.074 22.3456 155.588 22.4856 156.161 22.4856C156.788 22.4856 157.334 22.3189 157.801 21.9856C158.268 21.6522 158.601 21.2056 158.801 20.6456L161.101 21.6856C160.888 22.2989 160.541 22.8522 160.061 23.3456C159.581 23.8256 159.008 24.2056 158.341 24.4856C157.674 24.7522 156.948 24.8856 156.161 24.8856Z" fill="#2D55FF"/>
<path d="M61.279 41.5224C60.5417 41.5224 59.865 41.3918 59.249 41.1304C58.633 40.8598 58.0964 40.4864 57.639 40.0104C57.191 39.5251 56.841 38.9558 56.589 38.3024C56.337 37.6491 56.211 36.9304 56.211 36.1464C56.211 35.3624 56.337 34.6438 56.589 33.9904C56.841 33.3371 57.191 32.7678 57.639 32.2824C58.0964 31.7971 58.633 31.4238 59.249 31.1624C59.865 30.8918 60.5417 30.7564 61.279 30.7564C61.9884 30.7564 62.623 30.8824 63.183 31.1344C63.7524 31.3864 64.2284 31.7131 64.611 32.1144C65.003 32.5064 65.283 32.9218 65.451 33.3604L64.443 33.8504C64.1817 33.2158 63.7804 32.7164 63.239 32.3524C62.6977 31.9884 62.0444 31.8064 61.279 31.8064C60.5137 31.8064 59.8324 31.9884 59.235 32.3524C58.6377 32.7164 58.171 33.2251 57.835 33.8784C57.499 34.5224 57.331 35.2784 57.331 36.1464C57.331 37.0051 57.499 37.7611 57.835 38.4144C58.171 39.0678 58.6377 39.5764 59.235 39.9404C59.8324 40.2951 60.5137 40.4724 61.279 40.4724C61.9604 40.4724 62.5717 40.3231 63.113 40.0244C63.6637 39.7258 64.0977 39.3198 64.415 38.8064C64.7324 38.2838 64.891 37.6864 64.891 37.0144V36.4404L65.395 36.9444H61.279V35.9644H66.011V36.8324C66.011 37.5138 65.8897 38.1438 65.647 38.7224C65.4044 39.2918 65.0684 39.7864 64.639 40.2064C64.2097 40.6264 63.7057 40.9531 63.127 41.1864C62.5577 41.4104 61.9417 41.5224 61.279 41.5224ZM71.2791 41.5224C70.5791 41.5224 69.9444 41.3544 69.3751 41.0184C68.8151 40.6731 68.3718 40.2018 68.0451 39.6044C67.7184 39.0071 67.5551 38.3304 67.5551 37.5744C67.5551 36.8184 67.7138 36.1511 68.0311 35.5724C68.3484 34.9844 68.7778 34.5224 69.3191 34.1864C69.8698 33.8504 70.4858 33.6824 71.1671 33.6824C71.7084 33.6824 72.1891 33.7851 72.6091 33.9904C73.0384 34.1864 73.4024 34.4571 73.7011 34.8024C73.9998 35.1384 74.2284 35.5211 74.3871 35.9504C74.5458 36.3704 74.6251 36.8044 74.6251 37.2524C74.6251 37.3458 74.6204 37.4531 74.6111 37.5744C74.6018 37.6864 74.5878 37.8031 74.5691 37.9244H68.2271V36.9444H73.9671L73.4631 37.3644C73.5471 36.8511 73.4864 36.3938 73.2811 35.9924C73.0851 35.5818 72.8004 35.2598 72.4271 35.0264C72.0538 34.7838 71.6338 34.6624 71.1671 34.6624C70.7004 34.6624 70.2664 34.7838 69.8651 35.0264C69.4731 35.2691 69.1651 35.6098 68.9411 36.0484C68.7171 36.4778 68.6284 36.9911 68.6751 37.5884C68.6284 38.1858 68.7218 38.7084 68.9551 39.1564C69.1978 39.5951 69.5244 39.9358 69.9351 40.1784C70.3551 40.4211 70.8031 40.5424 71.2791 40.5424C71.8298 40.5424 72.2918 40.4118 72.6651 40.1504C73.0384 39.8891 73.3418 39.5624 73.5751 39.1704L74.4711 39.6464C74.3218 39.9824 74.0931 40.2951 73.7851 40.5844C73.4771 40.8644 73.1084 41.0931 72.6791 41.2704C72.2591 41.4384 71.7924 41.5224 71.2791 41.5224ZM76.4764 41.3544V33.8504H77.5264V35.0824L77.3864 34.9004C77.5637 34.5458 77.8297 34.2658 78.1844 34.0604C78.5484 33.8551 78.987 33.7524 79.5004 33.7524H79.9764V34.8024H79.3184C78.777 34.8024 78.343 34.9704 78.0164 35.3064C77.6897 35.6424 77.5264 36.1184 77.5264 36.7344V41.3544H76.4764ZM84.6228 41.5224C83.9228 41.5224 83.2882 41.3544 82.7188 41.0184C82.1588 40.6731 81.7155 40.2018 81.3888 39.6044C81.0622 39.0071 80.8988 38.3304 80.8988 37.5744C80.8988 36.8184 81.0575 36.1511 81.3748 35.5724C81.6922 34.9844 82.1215 34.5224 82.6628 34.1864C83.2135 33.8504 83.8295 33.6824 84.5108 33.6824C85.0522 33.6824 85.5328 33.7851 85.9528 33.9904C86.3822 34.1864 86.7462 34.4571 87.0448 34.8024C87.3435 35.1384 87.5722 35.5211 87.7308 35.9504C87.8895 36.3704 87.9688 36.8044 87.9688 37.2524C87.9688 37.3458 87.9642 37.4531 87.9548 37.5744C87.9455 37.6864 87.9315 37.8031 87.9128 37.9244H81.5708V36.9444H87.3108L86.8068 37.3644C86.8908 36.8511 86.8302 36.3938 86.6248 35.9924C86.4288 35.5818 86.1442 35.2598 85.7708 35.0264C85.3975 34.7838 84.9775 34.6624 84.5108 34.6624C84.0442 34.6624 83.6102 34.7838 83.2088 35.0264C82.8168 35.2691 82.5088 35.6098 82.2848 36.0484C82.0608 36.4778 81.9722 36.9911 82.0188 37.5884C81.9722 38.1858 82.0655 38.7084 82.2988 39.1564C82.5415 39.5951 82.8682 39.9358 83.2788 40.1784C83.6988 40.4211 84.1468 40.5424 84.6228 40.5424C85.1735 40.5424 85.6355 40.4118 86.0088 40.1504C86.3822 39.8891 86.6855 39.5624 86.9188 39.1704L87.8148 39.6464C87.6655 39.9824 87.4368 40.2951 87.1288 40.5844C86.8208 40.8644 86.4522 41.0931 86.0228 41.2704C85.6028 41.4384 85.1362 41.5224 84.6228 41.5224ZM89.8201 41.3544V33.8504H90.8701V35.3064L90.6321 35.2504C90.8188 34.7651 91.1221 34.3824 91.5421 34.1024C91.9715 33.8224 92.4661 33.6824 93.0261 33.6824C93.5581 33.6824 94.0341 33.8038 94.4541 34.0464C94.8835 34.2891 95.2195 34.6251 95.4621 35.0544C95.7141 35.4744 95.8401 35.9504 95.8401 36.4824V41.3544H94.7901V36.8884C94.7901 36.4311 94.7061 36.0438 94.5381 35.7264C94.3795 35.4091 94.1508 35.1664 93.8521 34.9984C93.5628 34.8211 93.2268 34.7324 92.8441 34.7324C92.4615 34.7324 92.1208 34.8211 91.8221 34.9984C91.5235 35.1664 91.2901 35.4138 91.1221 35.7404C90.9541 36.0578 90.8701 36.4404 90.8701 36.8884V41.3544H89.8201ZM101.276 41.5224C100.538 41.5224 99.8895 41.3498 99.3295 41.0044C98.7695 40.6591 98.3309 40.1924 98.0135 39.6044C97.6962 39.0071 97.5375 38.3351 97.5375 37.5884C97.5375 36.8418 97.6962 36.1744 98.0135 35.5864C98.3309 34.9984 98.7695 34.5364 99.3295 34.2004C99.8895 33.8551 100.538 33.6824 101.276 33.6824C101.742 33.6824 102.181 33.7664 102.592 33.9344C103.002 34.1024 103.366 34.3311 103.684 34.6204C104.001 34.9004 104.239 35.2271 104.398 35.6004L103.446 36.0904C103.259 35.6891 102.974 35.3624 102.592 35.1104C102.209 34.8584 101.77 34.7324 101.276 34.7324C100.781 34.7324 100.333 34.8584 99.9315 35.1104C99.5395 35.3531 99.2269 35.6938 98.9935 36.1324C98.7695 36.5618 98.6575 37.0518 98.6575 37.6024C98.6575 38.1438 98.7695 38.6338 98.9935 39.0724C99.2269 39.5018 99.5395 39.8424 99.9315 40.0944C100.333 40.3464 100.781 40.4724 101.276 40.4724C101.77 40.4724 102.204 40.3464 102.578 40.0944C102.96 39.8424 103.25 39.5064 103.446 39.0864L104.398 39.6044C104.239 39.9684 104.001 40.2951 103.684 40.5844C103.366 40.8738 103.002 41.1024 102.592 41.2704C102.181 41.4384 101.742 41.5224 101.276 41.5224ZM106.24 41.3544V33.8504H107.29V41.3544H106.24ZM106.24 32.4644V30.9244H107.29V32.4644H106.24ZM111.609 41.5224C111.133 41.5224 110.709 41.4338 110.335 41.2564C109.962 41.0698 109.668 40.8178 109.453 40.5004C109.239 40.1831 109.131 39.8191 109.131 39.4084C109.131 39.0164 109.215 38.6618 109.383 38.3444C109.551 38.0178 109.813 37.7424 110.167 37.5184C110.522 37.2944 110.975 37.1358 111.525 37.0424L114.465 36.5524V37.5044L111.777 37.9524C111.236 38.0458 110.844 38.2184 110.601 38.4704C110.368 38.7224 110.251 39.0211 110.251 39.3664C110.251 39.7024 110.382 39.9871 110.643 40.2204C110.914 40.4538 111.259 40.5704 111.679 40.5704C112.193 40.5704 112.641 40.4631 113.023 40.2484C113.406 40.0244 113.705 39.7258 113.919 39.3524C114.134 38.9791 114.241 38.5638 114.241 38.1064V36.2024C114.241 35.7544 114.078 35.3904 113.751 35.1104C113.425 34.8304 113 34.6904 112.477 34.6904C112.02 34.6904 111.619 34.8071 111.273 35.0404C110.928 35.2644 110.671 35.5584 110.503 35.9224L109.551 35.4044C109.691 35.0871 109.911 34.7978 110.209 34.5364C110.517 34.2751 110.867 34.0698 111.259 33.9204C111.651 33.7618 112.057 33.6824 112.477 33.6824C113.028 33.6824 113.513 33.7898 113.933 34.0044C114.363 34.2191 114.694 34.5178 114.927 34.9004C115.17 35.2738 115.291 35.7078 115.291 36.2024V41.3544H114.241V39.8564L114.395 40.0104C114.265 40.2904 114.059 40.5471 113.779 40.7804C113.509 41.0044 113.187 41.1864 112.813 41.3264C112.449 41.4571 112.048 41.5224 111.609 41.5224ZM120.839 41.5224C120.139 41.5224 119.509 41.3544 118.949 41.0184C118.389 40.6731 117.946 40.2064 117.619 39.6184C117.302 39.0211 117.143 38.3491 117.143 37.6024C117.143 36.8464 117.302 36.1744 117.619 35.5864C117.946 34.9984 118.384 34.5364 118.935 34.2004C119.495 33.8551 120.13 33.6824 120.839 33.6824C121.483 33.6824 122.057 33.8224 122.561 34.1024C123.065 34.3824 123.462 34.7604 123.751 35.2364L123.583 35.5304V30.7564H124.633V41.3544H123.583V39.6744L123.751 39.8284C123.49 40.3698 123.098 40.7898 122.575 41.0884C122.062 41.3778 121.483 41.5224 120.839 41.5224ZM120.895 40.4724C121.399 40.4724 121.852 40.3464 122.253 40.0944C122.664 39.8424 122.986 39.5018 123.219 39.0724C123.462 38.6338 123.583 38.1438 123.583 37.6024C123.583 37.0611 123.462 36.5758 123.219 36.1464C122.986 35.7078 122.664 35.3624 122.253 35.1104C121.852 34.8584 121.399 34.7324 120.895 34.7324C120.4 34.7324 119.952 34.8584 119.551 35.1104C119.15 35.3624 118.832 35.7031 118.599 36.1324C118.375 36.5618 118.263 37.0518 118.263 37.6024C118.263 38.1438 118.375 38.6338 118.599 39.0724C118.832 39.5018 119.145 39.8424 119.537 40.0944C119.938 40.3464 120.391 40.4724 120.895 40.4724ZM130.303 41.5224C129.594 41.5224 128.95 41.3544 128.371 41.0184C127.792 40.6731 127.33 40.2064 126.985 39.6184C126.649 39.0211 126.481 38.3444 126.481 37.5884C126.481 36.8418 126.649 36.1744 126.985 35.5864C127.321 34.9984 127.774 34.5364 128.343 34.2004C128.922 33.8551 129.575 33.6824 130.303 33.6824C131.031 33.6824 131.68 33.8504 132.249 34.1864C132.828 34.5224 133.28 34.9844 133.607 35.5724C133.943 36.1604 134.111 36.8324 134.111 37.5884C134.111 38.3538 133.938 39.0351 133.593 39.6324C133.248 40.2204 132.786 40.6824 132.207 41.0184C131.638 41.3544 131.003 41.5224 130.303 41.5224ZM130.303 40.4724C130.807 40.4724 131.26 40.3464 131.661 40.0944C132.072 39.8424 132.394 39.4971 132.627 39.0584C132.87 38.6198 132.991 38.1298 132.991 37.5884C132.991 37.0471 132.87 36.5618 132.627 36.1324C132.394 35.7031 132.072 35.3624 131.661 35.1104C131.26 34.8584 130.807 34.7324 130.303 34.7324C129.799 34.7324 129.342 34.8584 128.931 35.1104C128.53 35.3624 128.208 35.7031 127.965 36.1324C127.722 36.5618 127.601 37.0471 127.601 37.5884C127.601 38.1298 127.722 38.6198 127.965 39.0584C128.208 39.4971 128.53 39.8424 128.931 40.0944C129.342 40.3464 129.799 40.4724 130.303 40.4724ZM135.963 41.3544V33.8504H137.013V35.0824L136.873 34.9004C137.05 34.5458 137.316 34.2658 137.671 34.0604C138.035 33.8551 138.473 33.7524 138.987 33.7524H139.463V34.8024H138.805C138.263 34.8024 137.829 34.9704 137.503 35.3064C137.176 35.6424 137.013 36.1184 137.013 36.7344V41.3544H135.963ZM146.46 41.5224C145.76 41.5224 145.13 41.3544 144.57 41.0184C144.01 40.6731 143.567 40.2064 143.24 39.6184C142.923 39.0211 142.764 38.3491 142.764 37.6024C142.764 36.8464 142.923 36.1744 143.24 35.5864C143.567 34.9984 144.005 34.5364 144.556 34.2004C145.116 33.8551 145.751 33.6824 146.46 33.6824C147.104 33.6824 147.678 33.8224 148.182 34.1024C148.686 34.3824 149.083 34.7604 149.372 35.2364L149.204 35.5304V30.7564H150.254V41.3544H149.204V39.6744L149.372 39.8284C149.111 40.3698 148.719 40.7898 148.196 41.0884C147.683 41.3778 147.104 41.5224 146.46 41.5224ZM146.516 40.4724C147.02 40.4724 147.473 40.3464 147.874 40.0944C148.285 39.8424 148.607 39.5018 148.84 39.0724C149.083 38.6338 149.204 38.1438 149.204 37.6024C149.204 37.0611 149.083 36.5758 148.84 36.1464C148.607 35.7078 148.285 35.3624 147.874 35.1104C147.473 34.8584 147.02 34.7324 146.516 34.7324C146.021 34.7324 145.573 34.8584 145.172 35.1104C144.771 35.3624 144.453 35.7031 144.22 36.1324C143.996 36.5618 143.884 37.0518 143.884 37.6024C143.884 38.1438 143.996 38.6338 144.22 39.0724C144.453 39.5018 144.766 39.8424 145.158 40.0944C145.559 40.3464 146.012 40.4724 146.516 40.4724ZM155.826 41.5224C155.126 41.5224 154.491 41.3544 153.922 41.0184C153.362 40.6731 152.919 40.2018 152.592 39.6044C152.265 39.0071 152.102 38.3304 152.102 37.5744C152.102 36.8184 152.261 36.1511 152.578 35.5724C152.895 34.9844 153.325 34.5224 153.866 34.1864C154.417 33.8504 155.033 33.6824 155.714 33.6824C156.255 33.6824 156.736 33.7851 157.156 33.9904C157.585 34.1864 157.949 34.4571 158.248 34.8024C158.547 35.1384 158.775 35.5211 158.934 35.9504C159.093 36.3704 159.172 36.8044 159.172 37.2524C159.172 37.3458 159.167 37.4531 159.158 37.5744C159.149 37.6864 159.135 37.8031 159.116 37.9244H152.774V36.9444H158.514L158.01 37.3644C158.094 36.8511 158.033 36.3938 157.828 35.9924C157.632 35.5818 157.347 35.2598 156.974 35.0264C156.601 34.7838 156.181 34.6624 155.714 34.6624C155.247 34.6624 154.813 34.7838 154.412 35.0264C154.02 35.2691 153.712 35.6098 153.488 36.0484C153.264 36.4778 153.175 36.9911 153.222 37.5884C153.175 38.1858 153.269 38.7084 153.502 39.1564C153.745 39.5951 154.071 39.9358 154.482 40.1784C154.902 40.4211 155.35 40.5424 155.826 40.5424C156.377 40.5424 156.839 40.4118 157.212 40.1504C157.585 39.8891 157.889 39.5624 158.122 39.1704L159.018 39.6464C158.869 39.9824 158.64 40.2951 158.332 40.5844C158.024 40.8644 157.655 41.0931 157.226 41.2704C156.806 41.4384 156.339 41.5224 155.826 41.5224ZM166.832 41.5224C166.095 41.5224 165.446 41.3498 164.886 41.0044C164.326 40.6591 163.887 40.1924 163.57 39.6044C163.253 39.0071 163.094 38.3351 163.094 37.5884C163.094 36.8418 163.253 36.1744 163.57 35.5864C163.887 34.9984 164.326 34.5364 164.886 34.2004C165.446 33.8551 166.095 33.6824 166.832 33.6824C167.299 33.6824 167.737 33.7664 168.148 33.9344C168.559 34.1024 168.923 34.3311 169.24 34.6204C169.557 34.9004 169.795 35.2271 169.954 35.6004L169.002 36.0904C168.815 35.6891 168.531 35.3624 168.148 35.1104C167.765 34.8584 167.327 34.7324 166.832 34.7324C166.337 34.7324 165.889 34.8584 165.488 35.1104C165.096 35.3531 164.783 35.6938 164.55 36.1324C164.326 36.5618 164.214 37.0518 164.214 37.6024C164.214 38.1438 164.326 38.6338 164.55 39.0724C164.783 39.5018 165.096 39.8424 165.488 40.0944C165.889 40.3464 166.337 40.4724 166.832 40.4724C167.327 40.4724 167.761 40.3464 168.134 40.0944C168.517 39.8424 168.806 39.5064 169.002 39.0864L169.954 39.6044C169.795 39.9684 169.557 40.2951 169.24 40.5844C168.923 40.8738 168.559 41.1024 168.148 41.2704C167.737 41.4384 167.299 41.5224 166.832 41.5224ZM175.311 41.5224C174.601 41.5224 173.957 41.3544 173.379 41.0184C172.8 40.6731 172.338 40.2064 171.993 39.6184C171.657 39.0211 171.489 38.3444 171.489 37.5884C171.489 36.8418 171.657 36.1744 171.993 35.5864C172.329 34.9984 172.781 34.5364 173.351 34.2004C173.929 33.8551 174.583 33.6824 175.311 33.6824C176.039 33.6824 176.687 33.8504 177.257 34.1864C177.835 34.5224 178.288 34.9844 178.615 35.5724C178.951 36.1604 179.119 36.8324 179.119 37.5884C179.119 38.3538 178.946 39.0351 178.601 39.6324C178.255 40.2204 177.793 40.6824 177.215 41.0184C176.645 41.3544 176.011 41.5224 175.311 41.5224ZM175.311 40.4724C175.815 40.4724 176.267 40.3464 176.669 40.0944C177.079 39.8424 177.401 39.4971 177.635 39.0584C177.877 38.6198 177.999 38.1298 177.999 37.5884C177.999 37.0471 177.877 36.5618 177.635 36.1324C177.401 35.7031 177.079 35.3624 176.669 35.1104C176.267 34.8584 175.815 34.7324 175.311 34.7324C174.807 34.7324 174.349 34.8584 173.939 35.1104C173.537 35.3624 173.215 35.7031 172.973 36.1324C172.73 36.5618 172.609 37.0471 172.609 37.5884C172.609 38.1298 172.73 38.6198 172.973 39.0584C173.215 39.4971 173.537 39.8424 173.939 40.0944C174.349 40.3464 174.807 40.4724 175.311 40.4724ZM180.971 41.3544V33.8504H182.021V35.2784L181.853 35.0684C182.058 34.6298 182.361 34.2891 182.763 34.0464C183.173 33.8038 183.621 33.6824 184.107 33.6824C184.685 33.6824 185.208 33.8458 185.675 34.1724C186.141 34.4991 186.473 34.9238 186.669 35.4464L186.375 35.4604C186.561 34.8818 186.883 34.4431 187.341 34.1444C187.807 33.8364 188.321 33.6824 188.881 33.6824C189.385 33.6824 189.847 33.8038 190.267 34.0464C190.696 34.2891 191.037 34.6251 191.289 35.0544C191.55 35.4744 191.681 35.9504 191.681 36.4824V41.3544H190.631V36.8884C190.631 36.4311 190.547 36.0438 190.379 35.7264C190.22 35.4091 190.001 35.1664 189.721 34.9984C189.441 34.8211 189.119 34.7324 188.755 34.7324C188.4 34.7324 188.078 34.8211 187.789 34.9984C187.499 35.1664 187.271 35.4138 187.103 35.7404C186.935 36.0578 186.851 36.4404 186.851 36.8884V41.3544H185.801V36.8884C185.801 36.4311 185.717 36.0438 185.549 35.7264C185.39 35.4091 185.171 35.1664 184.891 34.9984C184.611 34.8211 184.289 34.7324 183.925 34.7324C183.561 34.7324 183.234 34.8211 182.945 34.9984C182.665 35.1664 182.441 35.4138 182.273 35.7404C182.105 36.0578 182.021 36.4404 182.021 36.8884V41.3544H180.971ZM193.685 44.1544V33.8504H194.735V35.5304L194.567 35.2364C194.866 34.7604 195.263 34.3824 195.757 34.1024C196.261 33.8224 196.835 33.6824 197.479 33.6824C198.189 33.6824 198.819 33.8551 199.369 34.2004C199.929 34.5364 200.368 34.9984 200.685 35.5864C201.012 36.1744 201.175 36.8464 201.175 37.6024C201.175 38.3491 201.012 39.0211 200.685 39.6184C200.368 40.2064 199.929 40.6731 199.369 41.0184C198.819 41.3544 198.189 41.5224 197.479 41.5224C196.835 41.5224 196.252 41.3778 195.729 41.0884C195.216 40.7898 194.829 40.3698 194.567 39.8284L194.735 39.6744V44.1544H193.685ZM197.423 40.4724C197.927 40.4724 198.375 40.3464 198.767 40.0944C199.169 39.8424 199.481 39.5018 199.705 39.0724C199.939 38.6338 200.055 38.1438 200.055 37.6024C200.055 37.0518 199.939 36.5618 199.705 36.1324C199.481 35.7031 199.169 35.3624 198.767 35.1104C198.375 34.8584 197.927 34.7324 197.423 34.7324C196.919 34.7324 196.462 34.8584 196.051 35.1104C195.65 35.3624 195.328 35.7078 195.085 36.1464C194.852 36.5758 194.735 37.0611 194.735 37.6024C194.735 38.1438 194.852 38.6338 195.085 39.0724C195.328 39.5018 195.65 39.8424 196.051 40.0944C196.462 40.3464 196.919 40.4724 197.423 40.4724ZM206.439 41.5224C205.739 41.5224 205.105 41.3544 204.535 41.0184C203.975 40.6731 203.532 40.2018 203.205 39.6044C202.879 39.0071 202.715 38.3304 202.715 37.5744C202.715 36.8184 202.874 36.1511 203.191 35.5724C203.509 34.9844 203.938 34.5224 204.479 34.1864C205.03 33.8504 205.646 33.6824 206.327 33.6824C206.869 33.6824 207.349 33.7851 207.769 33.9904C208.199 34.1864 208.563 34.4571 208.861 34.8024C209.16 35.1384 209.389 35.5211 209.547 35.9504C209.706 36.3704 209.785 36.8044 209.785 37.2524C209.785 37.3458 209.781 37.4531 209.771 37.5744C209.762 37.6864 209.748 37.8031 209.729 37.9244H203.387V36.9444H209.127L208.623 37.3644C208.707 36.8511 208.647 36.3938 208.441 35.9924C208.245 35.5818 207.961 35.2598 207.587 35.0264C207.214 34.7838 206.794 34.6624 206.327 34.6624C205.861 34.6624 205.427 34.7838 205.025 35.0264C204.633 35.2691 204.325 35.6098 204.101 36.0484C203.877 36.4778 203.789 36.9911 203.835 37.5884C203.789 38.1858 203.882 38.7084 204.115 39.1564C204.358 39.5951 204.685 39.9358 205.095 40.1784C205.515 40.4211 205.963 40.5424 206.439 40.5424C206.99 40.5424 207.452 40.4118 207.825 40.1504C208.199 39.8891 208.502 39.5624 208.735 39.1704L209.631 39.6464C209.482 39.9824 209.253 40.2951 208.945 40.5844C208.637 40.8644 208.269 41.0931 207.839 41.2704C207.419 41.4384 206.953 41.5224 206.439 41.5224ZM214.507 41.4384C213.835 41.4384 213.317 41.2424 212.953 40.8504C212.589 40.4584 212.407 39.8984 212.407 39.1704V34.9004H211.021V33.8504H211.371C211.688 33.8504 211.94 33.7478 212.127 33.5424C212.313 33.3278 212.407 33.0618 212.407 32.7444V32.1144H213.457V33.8504H215.109V34.9004H213.457V39.1704C213.457 39.4224 213.494 39.6464 213.569 39.8424C213.643 40.0291 213.769 40.1784 213.947 40.2904C214.133 40.4024 214.381 40.4584 214.689 40.4584C214.763 40.4584 214.852 40.4538 214.955 40.4444C215.057 40.4351 215.146 40.4258 215.221 40.4164V41.3544C215.109 41.3824 214.983 41.4011 214.843 41.4104C214.703 41.4291 214.591 41.4384 214.507 41.4384ZM217.064 41.3544V33.8504H218.114V41.3544H217.064ZM217.064 32.4644V30.9244H218.114V32.4644H217.064ZM223.694 41.5224C222.956 41.5224 222.308 41.3498 221.748 41.0044C221.188 40.6591 220.749 40.1924 220.432 39.6044C220.114 39.0071 219.956 38.3351 219.956 37.5884C219.956 36.8418 220.114 36.1744 220.432 35.5864C220.749 34.9984 221.188 34.5364 221.748 34.2004C222.308 33.8551 222.956 33.6824 223.694 33.6824C224.16 33.6824 224.599 33.7664 225.01 33.9344C225.42 34.1024 225.784 34.3311 226.102 34.6204C226.419 34.9004 226.657 35.2271 226.816 35.6004L225.864 36.0904C225.677 35.6891 225.392 35.3624 225.01 35.1104C224.627 34.8584 224.188 34.7324 223.694 34.7324C223.199 34.7324 222.751 34.8584 222.35 35.1104C221.958 35.3531 221.645 35.6938 221.412 36.1324C221.188 36.5618 221.076 37.0518 221.076 37.6024C221.076 38.1438 221.188 38.6338 221.412 39.0724C221.645 39.5018 221.958 39.8424 222.35 40.0944C222.751 40.3464 223.199 40.4724 223.694 40.4724C224.188 40.4724 224.622 40.3464 224.996 40.0944C225.378 39.8424 225.668 39.5064 225.864 39.0864L226.816 39.6044C226.657 39.9684 226.419 40.2951 226.102 40.5844C225.784 40.8738 225.42 41.1024 225.01 41.2704C224.599 41.4384 224.16 41.5224 223.694 41.5224ZM223.862 44.5744C223.591 44.5744 223.32 44.5278 223.05 44.4344C222.788 44.3411 222.574 44.2151 222.406 44.0564L222.7 43.3144C222.84 43.4451 222.998 43.5478 223.176 43.6224C223.362 43.6971 223.544 43.7344 223.722 43.7344C223.927 43.7344 224.09 43.6784 224.212 43.5664C224.342 43.4638 224.408 43.3284 224.408 43.1604C224.408 42.9458 224.3 42.7778 224.086 42.6564C223.871 42.5351 223.521 42.4464 223.036 42.3904L223.372 41.2144H224.128L223.946 41.8864C224.431 41.9891 224.795 42.1524 225.038 42.3764C225.29 42.6098 225.416 42.8944 225.416 43.2304C225.416 43.6224 225.266 43.9444 224.968 44.1964C224.678 44.4484 224.31 44.5744 223.862 44.5744ZM232.172 41.5224C231.463 41.5224 230.819 41.3544 230.24 41.0184C229.661 40.6731 229.199 40.2064 228.854 39.6184C228.518 39.0211 228.35 38.3444 228.35 37.5884C228.35 36.8418 228.518 36.1744 228.854 35.5864C229.19 34.9984 229.643 34.5364 230.212 34.2004C230.791 33.8551 231.444 33.6824 232.172 33.6824C232.9 33.6824 233.549 33.8504 234.118 34.1864C234.697 34.5224 235.149 34.9844 235.476 35.5724C235.812 36.1604 235.98 36.8324 235.98 37.5884C235.98 38.3538 235.807 39.0351 235.462 39.6324C235.117 40.2204 234.655 40.6824 234.076 41.0184C233.507 41.3544 232.872 41.5224 232.172 41.5224ZM232.172 40.4724C232.676 40.4724 233.129 40.3464 233.53 40.0944C233.941 39.8424 234.263 39.4971 234.496 39.0584C234.739 38.6198 234.86 38.1298 234.86 37.5884C234.86 37.0471 234.739 36.5618 234.496 36.1324C234.263 35.7031 233.941 35.3624 233.53 35.1104C233.129 34.8584 232.676 34.7324 232.172 34.7324C231.668 34.7324 231.211 34.8584 230.8 35.1104C230.399 35.3624 230.077 35.7031 229.834 36.1324C229.591 36.5618 229.47 37.0471 229.47 37.5884C229.47 38.1298 229.591 38.6198 229.834 39.0584C230.077 39.4971 230.399 39.8424 230.8 40.0944C231.211 40.3464 231.668 40.4724 232.172 40.4724ZM232.998 32.3944C232.755 32.3944 232.559 32.3524 232.41 32.2684C232.261 32.1751 232.135 32.0724 232.032 31.9604C231.929 31.8391 231.822 31.7364 231.71 31.6524C231.607 31.5591 231.477 31.5124 231.318 31.5124C231.169 31.5124 231.047 31.5731 230.954 31.6944C230.861 31.8158 230.814 32.0304 230.814 32.3384H229.946C229.946 31.7784 230.067 31.3538 230.31 31.0644C230.562 30.7658 230.898 30.6164 231.318 30.6164C231.561 30.6164 231.757 30.6631 231.906 30.7564C232.055 30.8404 232.181 30.9431 232.284 31.0644C232.387 31.1764 232.489 31.2791 232.592 31.3724C232.704 31.4564 232.839 31.4984 232.998 31.4984C233.166 31.4984 233.297 31.4284 233.39 31.2884C233.493 31.1391 233.544 30.9338 233.544 30.6724H234.398C234.398 31.1858 234.272 31.6011 234.02 31.9184C233.768 32.2358 233.427 32.3944 232.998 32.3944ZM241.248 41.5224C240.548 41.5224 239.913 41.3544 239.344 41.0184C238.784 40.6731 238.341 40.2018 238.014 39.6044C237.687 39.0071 237.524 38.3304 237.524 37.5744C237.524 36.8184 237.683 36.1511 238 35.5724C238.317 34.9844 238.747 34.5224 239.288 34.1864C239.839 33.8504 240.455 33.6824 241.136 33.6824C241.677 33.6824 242.158 33.7851 242.578 33.9904C243.007 34.1864 243.371 34.4571 243.67 34.8024C243.969 35.1384 244.197 35.5211 244.356 35.9504C244.515 36.3704 244.594 36.8044 244.594 37.2524C244.594 37.3458 244.589 37.4531 244.58 37.5744C244.571 37.6864 244.557 37.8031 244.538 37.9244H238.196V36.9444H243.936L243.432 37.3644C243.516 36.8511 243.455 36.3938 243.25 35.9924C243.054 35.5818 242.769 35.2598 242.396 35.0264C242.023 34.7838 241.603 34.6624 241.136 34.6624C240.669 34.6624 240.235 34.7838 239.834 35.0264C239.442 35.2691 239.134 35.6098 238.91 36.0484C238.686 36.4778 238.597 36.9911 238.644 37.5884C238.597 38.1858 238.691 38.7084 238.924 39.1564C239.167 39.5951 239.493 39.9358 239.904 40.1784C240.324 40.4211 240.772 40.5424 241.248 40.5424C241.799 40.5424 242.261 40.4118 242.634 40.1504C243.007 39.8891 243.311 39.5624 243.544 39.1704L244.44 39.6464C244.291 39.9824 244.062 40.2951 243.754 40.5844C243.446 40.8644 243.077 41.0931 242.648 41.2704C242.228 41.4384 241.761 41.5224 241.248 41.5224ZM249.049 41.5224C248.33 41.5224 247.7 41.3404 247.159 40.9764C246.618 40.6124 246.226 40.1178 245.983 39.4924L246.865 39.0724C247.08 39.5298 247.378 39.8938 247.761 40.1644C248.153 40.4351 248.582 40.5704 249.049 40.5704C249.497 40.5704 249.875 40.4631 250.183 40.2484C250.491 40.0244 250.645 39.7351 250.645 39.3804C250.645 39.1191 250.57 38.9138 250.421 38.7644C250.272 38.6058 250.099 38.4844 249.903 38.4004C249.707 38.3164 249.534 38.2558 249.385 38.2184L248.307 37.9104C247.616 37.7144 247.117 37.4391 246.809 37.0844C246.501 36.7298 246.347 36.3191 246.347 35.8524C246.347 35.4138 246.459 35.0311 246.683 34.7044C246.907 34.3778 247.21 34.1258 247.593 33.9484C247.976 33.7711 248.4 33.6824 248.867 33.6824C249.502 33.6824 250.076 33.8504 250.589 34.1864C251.112 34.5131 251.48 34.9704 251.695 35.5584L250.799 35.9784C250.612 35.5584 250.342 35.2318 249.987 34.9984C249.642 34.7558 249.254 34.6344 248.825 34.6344C248.405 34.6344 248.069 34.7418 247.817 34.9564C247.565 35.1711 247.439 35.4418 247.439 35.7684C247.439 36.0204 247.504 36.2211 247.635 36.3704C247.766 36.5198 247.915 36.6318 248.083 36.7064C248.26 36.7811 248.414 36.8371 248.545 36.8744L249.791 37.2384C250.398 37.4158 250.869 37.6911 251.205 38.0644C251.55 38.4378 251.723 38.8764 251.723 39.3804C251.723 39.7911 251.606 40.1598 251.373 40.4864C251.149 40.8131 250.836 41.0698 250.435 41.2564C250.034 41.4338 249.572 41.5224 249.049 41.5224Z" fill="#222B3D"/>
</svg>
